<?xml version="1.0" standalone="no"?>
<!DOCTYPE svg PUBLIC "-//W3C//DTD SVG 20010904//EN"
 "http://www.w3.org/TR/2001/REC-SVG-20010904/DTD/svg10.dtd">
<svg version="1.0" xmlns="http://www.w3.org/2000/svg"
 width="4316.000000pt" height="2696.000000pt" viewBox="0 0 4316.000000 2696.000000"
 preserveAspectRatio="xMidYMid meet">

<g transform="translate(0.000000,2696.000000) scale(0.100000,-0.100000)"
fill="#000000" stroke="none">
<path d="M11660 26944 c-14 -2 -65 -9 -114 -15 -106 -13 -265 -48 -384 -84
l-85 -27 94 -37 c711 -287 1245 -895 1434 -1635 56 -221 69 -332 69 -591 1
-252 -11 -357 -63 -570 -84 -341 -242 -660 -468 -940 -152 -190 -388 -398
-590 -524 -95 -58 -290 -157 -388 -196 -38 -15 -72 -29 -74 -30 -8 -8 204 -67
320 -90 190 -37 340 -48 549 -42 359 11 655 84 975 241 241 118 423 246 614
431 384 372 625 844 708 1385 24 160 24 510 0 670 -77 499 -291 947 -621 1300
-312 333 -720 577 -1147 685 -212 54 -319 67 -569 70 -129 2 -246 2 -260 -1z"/>
<path d="M10205 25338 c-918 -103 -1703 -737 -2000 -1615 -89 -262 -120 -460
-120 -768 0 -248 13 -366 62 -565 215 -887 916 -1576 1804 -1774 196 -44 367
-59 594 -53 251 7 412 32 633 99 l102 31 -102 42 c-547 222 -995 640 -1254
1170 -111 228 -178 441 -221 700 -25 155 -25 542 0 705 55 345 184 683 367
958 102 153 168 234 293 361 239 243 485 411 786 537 l124 52 -99 31 c-233 72
-448 102 -714 100 -96 -1 -211 -6 -255 -11z"/>
<path d="M2925 18153 c-137 -7 -350 -36 -510 -68 -286 -59 -494 -129 -751
-256 -687 -337 -1217 -957 -1477 -1729 -310 -921 -223 -1992 230 -2804 365
-655 911 -1115 1610 -1356 285 -98 609 -156 981 -175 l132 -7 0 800 0 799
-126 12 c-445 41 -800 210 -1057 505 -562 645 -516 1700 100 2276 184 172 402
289 658 354 204 51 210 51 1145 51 l875 0 5 -2590 c6 -2815 3 -2632 61 -3050
251 -1812 1279 -3453 2800 -4474 458 -307 1009 -578 1529 -751 450 -151 950
-254 1465 -302 188 -18 892 -18 1080 0 856 81 1606 294 2345 668 1397 706
2487 1900 3065 3359 80 200 200 578 254 795 81 330 131 629 173 1045 9 90 13
959 15 3513 l3 3392 -3717 -3 c-3494 -2 -3724 -3 -3823 -20 -265 -44 -481
-112 -705 -221 -734 -359 -1224 -1042 -1331 -1856 -23 -179 -15 -536 16 -710
116 -655 483 -1217 1036 -1586 289 -193 608 -317 969 -377 127 -21 156 -21
1443 -24 l1312 -4 0 801 0 800 -1222 0 c-1313 1 -1297 0 -1439 52 -163 60
-326 191 -416 335 -185 297 -147 687 92 951 97 107 236 192 390 238 57 18 186
19 2928 21 l2868 3 -4 -2547 c-3 -2799 1 -2607 -63 -2993 -205 -1238 -874
-2342 -1879 -3101 -644 -486 -1431 -808 -2235 -913 -320 -42 -843 -47 -1145
-11 -1280 151 -2407 770 -3210 1765 -506 627 -853 1395 -989 2190 -65 382 -60
75 -63 3818 l-3 3392 -1678 -2 c-922 -1 -1704 -3 -1737 -5z"/>
<path d="M19340 18151 c-79 -24 -150 -92 -169 -164 -9 -31 -11 -1598 -9 -6247
3 -5890 4 -6207 21 -6237 26 -48 84 -100 131 -118 37 -14 495 -15 4657 -13
l4616 3 49 30 c30 19 60 49 79 79 l30 49 3 611 c2 463 0 622 -10 656 -8 30
-27 60 -59 92 -86 86 332 78 -4036 78 l-3883 0 0 1995 0 1995 3103 2 3102 3
47 23 c59 29 112 89 127 145 9 30 11 212 9 653 l-3 611 -30 49 c-19 30 -49 60
-79 79 l-49 30 -3114 3 -3113 2 0 2000 0 2000 3891 0 c2954 0 3901 3 3931 12
51 15 121 77 147 131 21 42 21 56 21 657 0 601 0 615 -21 657 -26 54 -96 116
-147 131 -30 9 -1138 12 -4628 11 -2524 0 -4600 -4 -4614 -8z"/>
<path d="M30582 18141 c-29 -10 -70 -32 -90 -48 -47 -37 -99 -113 -112 -164
-7 -25 -10 -229 -8 -591 l3 -553 23 -43 c35 -66 88 -119 150 -149 l57 -28
3578 -5 3578 -5 -794 -1075 c-1897 -2571 -4478 -6069 -5496 -7448 l-1102
-1493 3 -472 3 -472 23 -45 c32 -61 87 -116 147 -148 l50 -27 4552 -3 4552 -2
54 20 c73 27 140 88 174 158 l28 57 0 560 0 560 -26 55 c-33 69 -87 122 -158
158 l-56 27 -3517 5 -3517 5 542 735 c299 404 1087 1473 1753 2375 666 902
2059 2791 3097 4197 l1887 2557 0 524 c0 586 0 581 -69 673 -26 35 -56 59
-105 84 l-69 35 -4541 2 c-4379 2 -4543 2 -4594 -16z"/>
<path d="M6505 3784 c-16 -2 -72 -9 -124 -15 -449 -52 -922 -302 -1199 -635
-291 -347 -426 -708 -439 -1169 -8 -280 18 -471 96 -704 100 -300 303 -603
530 -794 290 -243 614 -387 997 -443 163 -24 477 -24 634 0 208 31 443 102
601 182 112 56 276 172 367 259 l87 84 -127 127 -126 127 -78 -72 c-92 -86
-241 -187 -344 -234 -433 -197 -973 -190 -1405 18 -287 137 -542 391 -690 685
-106 211 -145 377 -152 650 -5 169 -2 212 16 319 39 231 142 474 275 652 84
111 261 281 367 352 281 186 629 280 984 263 396 -18 713 -144 968 -385 l58
-55 127 127 127 127 -45 46 c-309 316 -804 498 -1339 493 -75 -1 -149 -4 -166
-5z"/>
<path d="M11425 3783 c-891 -77 -1570 -681 -1727 -1533 -29 -159 -32 -522 -5
-684 66 -390 241 -731 517 -1006 291 -292 661 -473 1096 -536 163 -24 486 -24
642 0 901 137 1535 791 1621 1670 71 723 -231 1384 -809 1771 -319 213 -729
328 -1154 323 -77 -1 -159 -3 -181 -5z m383 -354 c215 -23 383 -73 572 -170
271 -138 503 -375 643 -654 150 -301 198 -677 132 -1032 -85 -455 -408 -873
-826 -1066 -371 -173 -821 -201 -1215 -77 -136 43 -342 147 -444 224 -292 220
-502 551 -582 919 -30 140 -33 471 -4 622 49 264 169 513 349 723 320 375 845
570 1375 511z"/>
<path d="M15650 1895 l0 -1865 188 2 187 3 5 1472 5 1472 725 -1234 725 -1234
96 -1 97 0 722 1237 c397 681 726 1242 731 1247 5 6 9 -613 9 -1477 l0 -1487
188 2 187 3 3 1863 2 1862 -166 -2 -166 -3 -796 -1372 c-438 -755 -799 -1373
-802 -1373 -3 0 -368 619 -810 1375 l-805 1374 -162 1 -163 0 0 -1865z"/>
<path d="M21920 1896 l0 -1866 195 0 195 0 0 590 0 590 564 0 c310 0 610 5
667 10 702 69 1152 420 1266 987 25 123 25 433 0 556 -108 538 -500 870 -1148
974 -89 14 -221 17 -921 20 l-818 4 0 -1865z m1715 1496 c414 -79 673 -289
764 -621 59 -215 46 -476 -33 -673 -87 -214 -274 -380 -523 -464 -197 -66
-206 -67 -900 -71 l-633 -4 0 931 0 932 608 -5 c562 -4 615 -6 717 -25z"/>
<path d="M27781 3743 c-19 -37 -1683 -3679 -1688 -3695 -5 -17 9 -18 198 -18
l204 0 224 500 223 500 1038 0 1037 0 224 -500 224 -500 208 0 c115 0 207 4
205 9 -1 4 -385 843 -852 1865 l-849 1856 -193 0 c-174 0 -194 -2 -203 -17z
m644 -1388 c242 -541 441 -988 443 -994 3 -8 -261 -11 -888 -11 -846 0 -892 1
-885 18 23 60 881 1972 885 1972 3 0 203 -443 445 -985z"/>
<path d="M31680 1895 l0 -1865 198 2 197 3 5 1503 5 1503 1193 -1505 1194
-1506 159 0 159 0 0 1865 0 1865 -190 0 -190 0 0 -1505 c0 -828 -3 -1505 -7
-1504 -5 0 -545 677 -1202 1505 l-1194 1504 -163 0 -164 0 0 -1865z"/>
<path d="M36668 3633 c43 -71 379 -619 745 -1219 l667 -1091 0 -647 0 -646
195 0 195 0 0 644 0 644 726 1189 c399 653 735 1203 746 1221 l20 32 -199 0
-198 -1 -635 -1039 c-349 -572 -637 -1040 -640 -1040 -3 0 -291 468 -640 1040
l-635 1039 -212 1 -213 0 78 -127z"/>
</g>
</svg>
