<?xml version="1.0" standalone="no"?>
<!DOCTYPE svg PUBLIC "-//W3C//DTD SVG 20010904//EN"
 "http://www.w3.org/TR/2001/REC-SVG-20010904/DTD/svg10.dtd">
<svg version="1.0" xmlns="http://www.w3.org/2000/svg"
 width="458.000000pt" height="364.000000pt" viewBox="0 0 458.000000 364.000000"
 preserveAspectRatio="xMidYMid meet">

<g transform="translate(0.000000,364.000000) scale(0.100000,-0.100000)"
fill="#000000" stroke="none">
<path d="M23 2728 c4 -972 3 -946 58 -1148 46 -168 160 -362 275 -470 149
-138 307 -218 546 -273 93 -21 94 -21 1866 -24 l1772 -3 0 175 0 175 -875 0
c-481 0 -875 2 -875 5 0 3 394 496 875 1095 l875 1090 0 140 0 140 -1542 -2
c-1728 -3 -1576 3 -1743 -77 -154 -73 -283 -202 -356 -356 -61 -126 -74 -190
-73 -345 0 -125 3 -142 33 -230 92 -269 304 -459 573 -514 42 -9 91 -16 108
-16 l30 0 0 -461 0 -461 -262 4 c-230 4 -273 8 -343 27 -334 91 -501 321 -535
738 -6 72 -10 464 -10 909 l0 784 -201 0 -200 0 4 -902z m1547 113 l0 -458
-47 8 c-249 39 -421 273 -382 519 28 179 161 326 340 374 99 27 89 77 89 -443z
m2430 434 c0 -3 -156 -199 -346 -435 l-347 -430 -666 2 -666 3 -3 433 -2 432
1015 0 c558 0 1015 -2 1015 -5z m-982 -1222 c-8 -10 -174 -215 -368 -456
l-352 -437 -162 2 -161 3 -3 453 -2 452 531 0 c506 0 531 -1 517 -17z"/>
<path d="M174 524 c-58 -21 -118 -76 -145 -132 -28 -57 -31 -166 -7 -223 43
-98 138 -159 249 -159 76 0 120 13 167 47 31 24 32 26 17 43 -17 18 -18 18
-57 -7 -47 -32 -136 -42 -193 -23 -84 28 -145 114 -145 205 0 92 61 177 146
205 55 18 147 7 194 -24 36 -24 39 -24 54 -7 15 16 15 19 -1 33 -60 52 -196
73 -279 42z"/>
<path d="M804 524 c-169 -60 -226 -284 -108 -422 50 -59 104 -84 190 -90 176
-11 294 94 294 263 0 162 -112 267 -282 264 -29 0 -72 -7 -94 -15z m177 -45
c90 -31 143 -106 143 -204 0 -128 -87 -215 -214 -215 -124 0 -219 92 -220 213
0 151 146 254 291 206z"/>
<path d="M1410 275 l0 -265 25 0 25 0 2 207 3 208 100 -172 c64 -111 106 -172
116 -173 11 0 50 57 115 170 l99 169 3 -204 2 -205 30 0 30 0 -2 262 c-3 261
-3 263 -25 266 -22 3 -17 11 -190 -286 l-60 -102 -114 195 c-95 163 -117 195
-136 195 l-23 0 0 -265z"/>
<path d="M2230 276 l0 -266 25 0 c24 0 24 2 27 82 l3 83 115 5 c121 6 155 16
197 62 73 78 49 215 -47 267 -39 22 -59 25 -182 29 l-138 5 0 -267z m262 202
c56 -16 88 -58 88 -114 0 -102 -47 -134 -199 -134 l-101 0 0 123 c0 68 3 127
7 130 11 12 163 8 205 -5z"/>
<path d="M2971 498 c-10 -24 -58 -128 -106 -233 -48 -104 -94 -205 -102 -223
l-14 -33 31 3 c28 3 34 10 60 68 l29 65 148 3 148 2 30 -70 c27 -62 33 -70 58
-70 15 0 27 3 27 8 0 4 -53 123 -117 264 -113 247 -119 258 -146 258 -23 0
-31 -7 -46 -42z m112 -168 l56 -125 -116 -3 c-63 -1 -118 0 -121 2 -2 3 22 64
54 135 32 72 61 127 65 123 4 -4 32 -63 62 -132z"/>
<path d="M3477 533 c-4 -3 -7 -123 -7 -265 l0 -258 30 0 30 0 2 210 3 209 165
-209 c127 -161 170 -210 188 -210 l22 0 0 265 0 265 -25 0 -25 0 -2 -212 -3
-212 -168 212 c-157 198 -188 228 -210 205z"/>
<path d="M4112 518 c8 -13 56 -91 106 -174 l92 -151 0 -92 0 -91 30 0 30 0 0
95 0 94 96 157 c116 191 115 187 79 182 -24 -3 -40 -23 -114 -145 -47 -78 -88
-143 -91 -143 -3 0 -45 65 -93 145 -83 136 -90 145 -119 145 -29 0 -30 -1 -16
-22z"/>
</g>
</svg>
