<svg width="31" height="31" viewBox="0 0 31 31" fill="none" xmlns="http://www.w3.org/2000/svg">
<path fill-rule="evenodd" clip-rule="evenodd" d="M30.3796 15.852C30.3796 14.753 30.281 13.6962 30.0978 12.6817H15.5V18.6772H23.8416C23.4823 20.6147 22.3903 22.2562 20.7487 23.3553V27.2443H25.7579C28.6888 24.5459 30.3796 20.5724 30.3796 15.852Z" fill="#4285F4"/>
<path fill-rule="evenodd" clip-rule="evenodd" d="M15.4995 30.9988C19.6844 30.9988 23.1929 29.6108 25.7574 27.2436L20.7482 23.3546C19.3603 24.2846 17.5849 24.8341 15.4995 24.8341C11.4625 24.8341 8.04555 22.1076 6.82672 18.4441H1.64844V22.4599C4.19883 27.5254 9.44052 30.9988 15.4995 30.9988Z" fill="#34A853"/>
<path fill-rule="evenodd" clip-rule="evenodd" d="M6.82688 18.4452C6.51689 17.5152 6.34075 16.5218 6.34075 15.5003C6.34075 14.4787 6.51689 13.4853 6.82688 12.5553V8.53952H1.6486C0.598849 10.632 0 12.9992 0 15.5003C0 18.0013 0.598849 20.3686 1.6486 22.461L6.82688 18.4452Z" fill="#FBBC05"/>
<path fill-rule="evenodd" clip-rule="evenodd" d="M15.4995 6.16462C17.7751 6.16462 19.8182 6.94665 21.4245 8.48252L25.8701 4.03695C23.1859 1.53587 19.6773 0 15.4995 0C9.44052 0 4.19883 3.47332 1.64844 8.53888L6.82672 12.5547C8.04555 8.89115 11.4625 6.16462 15.4995 6.16462Z" fill="#EA4335"/>
</svg>
