<?xml version="1.0" standalone="no"?>
<!DOCTYPE svg PUBLIC "-//W3C//DTD SVG 20010904//EN"
 "http://www.w3.org/TR/2001/REC-SVG-20010904/DTD/svg10.dtd">
<svg version="1.0" xmlns="http://www.w3.org/2000/svg"
 width="50.000000pt" height="50.000000pt" viewBox="0 0 50.000000 50.000000"
 preserveAspectRatio="xMidYMid meet">

<g transform="translate(0.000000,50.000000) scale(0.100000,-0.100000)"
fill="#000000" stroke="none">
<path d="M130 438 c-132 -67 -132 -249 0 -316 50 -25 100 -28 145 -8 29 13 31
13 93 -47 l62 -61 22 22 22 22 -58 59 -59 59 17 41 c21 53 20 96 -3 146 -22
48 -44 69 -94 90 -51 21 -95 19 -147 -7z m148 -38 c94 -57 94 -183 0 -240
-117 -71 -259 71 -188 188 42 68 124 91 188 52z"/>
</g>
</svg>
