<svg width="210" height="204" viewBox="0 0 210 204" fill="none" xmlns="http://www.w3.org/2000/svg">
<mask id="mask0_1031_375" style="mask-type:alpha" maskUnits="userSpaceOnUse" x="0" y="0" width="114" height="199">
<rect width="114" height="199" fill="#D9D9D9"/>
</mask>
<g mask="url(#mask0_1031_375)">
<path d="M113.5 11L135.166 77.6799H205.277L148.556 118.89L170.221 185.57L113.5 144.36L56.7787 185.57L78.4443 118.89L21.723 77.6799H91.8344L113.5 11Z" fill="#FFF500"/>
</g>
<path d="M113.5 12.618L134.69 77.8344L134.802 78.1799H135.166H203.738L148.262 118.486L147.968 118.699L148.08 119.045L169.27 184.261L113.794 143.955L113.5 143.742L113.206 143.955L57.7298 184.261L78.9198 119.045L79.0321 118.699L78.7382 118.486L23.2619 78.1799H91.8344H92.1977L92.3099 77.8344L113.5 12.618Z" stroke="black"/>
</svg>
